<?xml version="1.0" encoding="UTF-8" standalone="no"?>
<!-- Generator: Adobe Illustrator 13.0.2, SVG Export Plug-In . SVG Version: 6.00 Build 14948)  -->

<svg
   xmlns:dc="http://purl.org/dc/elements/1.1/"
   xmlns:cc="http://creativecommons.org/ns#"
   xmlns:rdf="http://www.w3.org/1999/02/22-rdf-syntax-ns#"
   xmlns:svg="http://www.w3.org/2000/svg"
   xmlns="http://www.w3.org/2000/svg"
   xmlns:sodipodi="http://sodipodi.sourceforge.net/DTD/sodipodi-0.dtd"
   xmlns:inkscape="http://www.inkscape.org/namespaces/inkscape"
   version="1.1"
   id="Ebene_1"
   x="0px"
   y="0px"
   width="128"
   height="128"
   viewBox="0 0 128 128"
   enable-background="new 0 0 220 200"
   xml:space="preserve"
   inkscape:version="0.48.3.1 r9886"
   sodipodi:docname="futon.svg"
   inkscape:export-filename="/home/caolan/projects/dashboard/img/icons/futon_16.png"
   inkscape:export-xdpi="11.25"
   inkscape:export-ydpi="11.25"><metadata
   id="metadata47"><rdf:RDF><cc:Work
       rdf:about=""><dc:format>image/svg+xml</dc:format><dc:type
         rdf:resource="http://purl.org/dc/dcmitype/StillImage" /><dc:title></dc:title></cc:Work></rdf:RDF></metadata><defs
   id="defs45" /><sodipodi:namedview
   pagecolor="#ffffff"
   bordercolor="#666666"
   borderopacity="1"
   objecttolerance="10"
   gridtolerance="10"
   guidetolerance="10"
   inkscape:pageopacity="0"
   inkscape:pageshadow="2"
   inkscape:window-width="940"
   inkscape:window-height="714"
   id="namedview43"
   showgrid="false"
   inkscape:zoom="2.36"
   inkscape:cx="68.294075"
   inkscape:cy="56.510153"
   inkscape:window-x="0"
   inkscape:window-y="0"
   inkscape:window-maximized="0"
   inkscape:current-layer="Ebene_1" />





<g
   id="g3024"
   transform="matrix(1.021568,0,0,1.021568,1.1292115,13.901641)"><polygon
     transform="matrix(0.54429729,0,0,0.54429729,1.1871055,11.759822)"
     style="fill:#ff0000"
     id="polygon3"
     points="215.396,126.065 215.396,48.685 201.51,48.685 201.51,10.92 20.542,10.92 20.542,48.685 6.383,48.685 6.383,126.065 " /><path
     style="fill:#eb1019"
     inkscape:connector-curvature="0"
     id="path5"
     d="M 2.605,81.271485 V 36.202037 h 7.707249 V 15.647194 H 112.92427 v 20.554843 h 7.55757 V 81.271485 H 2.605 l 0,0 z M 5.8190755,79.65329 116.85246,79.750719 116.3713,40.314747 h -7.56029 V 19.758815 H 14.422783 V 40.314747 H 6.7155332 L 5.9638586,78.348609 5.8190755,79.65329 z" /><polygon
     transform="matrix(0.54429729,0,0,0.54429729,1.1871055,11.759822)"
     style="fill:#ffffff"
     id="polygon7"
     points="55.305,0.438 29.972,6.829 29.972,23.848 36.422,32.574 55.382,26.136 " /><polygon
     transform="matrix(0.54429729,0,0,0.54429729,1.1871055,11.759822)"
     style="fill:#bd101d;stroke:#bd101d"
     id="polygon9"
     points="33.813,126.69 33.899,93.641 76.686,103.309 187.977,92.94 188.003,126.69 " /><polygon
     transform="matrix(0.54429729,0,0,0.54429729,1.1871055,11.759822)"
     style="fill:#bd101d;stroke:#bd101d"
     id="polygon11"
     points="33.871,74.63 73.602,86.029 187.13,75.945 187.13,52.758 161.239,69.688 149.609,64.863 125.424,48.352 96.529,57.145 33.871,52.401 " /><polygon
     transform="matrix(0.54429729,0,0,0.54429729,1.1871055,11.759822)"
     style="fill:#ffffff"
     id="polygon13"
     points="89.863,83.941 125.821,60.593 145.377,77.117 150.128,75.256 151.931,80.169 187.13,77.01 184.075,69.212 164.271,64.369 128.412,35.152 89.34,49.973 77.334,34.173 95.421,15.785 112.66,15.785 119.461,21.515 119.461,15.785 133.01,15.785 129.737,8.181 90.051,1.897 53.414,25.361 16.749,37.652 9.587,45.228 9.587,65.542 19.699,69.846 19.699,58.113 24.002,61.485 24.002,53.469 33.871,53.467 52.137,80.971 58.873,82.808 68.02,120.713 72.766,122.681 76.123,136.549 102.592,136.549 " /></g>


</svg>